<svg width="64" height="64" viewBox="0 0 64 64" xmlns="http://www.w3.org/2000/svg" role="img" aria-label="SideQuest">
  <rect width="64" height="64" fill="#d8d8d2"/>
  <rect x="22" y="14" width="4" height="4" fill="#6e654f"/>
  <rect x="26" y="10" width="12" height="4" fill="#6e654f"/>
  <rect x="38" y="14" width="4" height="4" fill="#6e654f"/>
  <rect x="18" y="18" width="4" height="24" fill="#6e654f"/>
  <rect x="42" y="18" width="4" height="24" fill="#6e654f"/>
  <rect x="22" y="42" width="4" height="6" fill="#6e654f"/>
  <rect x="26" y="48" width="12" height="4" fill="#6e654f"/>
  <rect x="38" y="42" width="4" height="6" fill="#6e654f"/>
  <rect x="22" y="18" width="4" height="24" fill="#fff6bf"/>
  <rect x="26" y="14" width="12" height="34" fill="#fff0a9"/>
  <rect x="38" y="18" width="4" height="24" fill="#f4e39a"/>
  <rect x="24" y="22" width="6" height="8" fill="#91b547"/>
  <rect x="34" y="21" width="8" height="22" fill="#fff8d2"/>
  <rect x="28" y="23" width="8" height="16" fill="#3a1f19"/>
  <rect x="30" y="25" width="4" height="12" fill="#ff9f00"/>
  <rect x="34" y="25" width="2" height="10" fill="#ffcf3c"/>
  <rect x="29" y="41" width="6" height="6" fill="#3a1f19"/>
  <rect x="31" y="42" width="3" height="3" fill="#d94a00"/>
</svg>
