<svg width="512" height="512" viewBox="0 0 512 512" xmlns="http://www.w3.org/2000/svg" role="img" aria-labelledby="title desc">
  <title id="title">SideQuest logo</title>
  <desc id="desc">A pixel-style glowing egg with an orange exclamation mark.</desc>
  <rect width="512" height="512" fill="#d8d8d2"/>
  <rect x="80" y="352" width="352" height="28" fill="#647235" opacity=".22"/>
  <rect x="156" y="348" width="200" height="28" fill="#9ab73f"/>
  <rect x="176" y="336" width="40" height="20" fill="#3d662f"/>
  <rect x="216" y="332" width="48" height="16" fill="#597b31"/>
  <rect x="264" y="332" width="56" height="16" fill="#5f8135"/>
  <rect x="320" y="338" width="36" height="18" fill="#3f6b33"/>
  <rect x="128" y="352" width="36" height="24" fill="#8a8b85"/>
  <rect x="136" y="344" width="44" height="22" fill="#d9d0c3"/>
  <rect x="348" y="352" width="40" height="24" fill="#8a8b85"/>
  <rect x="336" y="344" width="44" height="22" fill="#d9d0c3"/>
  <rect x="188" y="180" width="16" height="96" fill="#6e654f"/>
  <rect x="204" y="132" width="16" height="48" fill="#6e654f"/>
  <rect x="220" y="100" width="16" height="32" fill="#6e654f"/>
  <rect x="236" y="84" width="40" height="16" fill="#6e654f"/>
  <rect x="276" y="100" width="16" height="32" fill="#6e654f"/>
  <rect x="292" y="132" width="16" height="48" fill="#6e654f"/>
  <rect x="308" y="180" width="16" height="96" fill="#6e654f"/>
  <rect x="204" y="276" width="16" height="48" fill="#6e654f"/>
  <rect x="220" y="324" width="16" height="32" fill="#6e654f"/>
  <rect x="236" y="356" width="40" height="16" fill="#6e654f"/>
  <rect x="276" y="324" width="16" height="32" fill="#6e654f"/>
  <rect x="292" y="276" width="16" height="48" fill="#6e654f"/>
  <rect x="204" y="180" width="16" height="96" fill="#fff6bf"/>
  <rect x="220" y="132" width="16" height="224" fill="#fff4b7"/>
  <rect x="236" y="100" width="40" height="272" fill="#fff0a9"/>
  <rect x="276" y="132" width="16" height="224" fill="#fff5bd"/>
  <rect x="292" y="180" width="16" height="96" fill="#f4e39a"/>
  <rect x="220" y="132" width="28" height="42" fill="#d0d65f"/>
  <rect x="204" y="196" width="28" height="52" fill="#91b547"/>
  <rect x="286" y="202" width="18" height="36" fill="#a5bb65"/>
  <rect x="280" y="260" width="24" height="44" fill="#86a646"/>
  <rect x="236" y="108" width="34" height="34" fill="#fffce0"/>
  <rect x="248" y="100" width="36" height="24" fill="#fff8d2"/>
  <rect x="244" y="164" width="48" height="88" fill="#3a1f19"/>
  <rect x="252" y="172" width="32" height="80" fill="#ff9f00"/>
  <rect x="268" y="172" width="16" height="66" fill="#ffcf3c"/>
  <rect x="252" y="254" width="32" height="34" fill="#3a1f19"/>
  <rect x="260" y="262" width="24" height="20" fill="#d94a00"/>
  <rect x="164" y="160" width="12" height="12" fill="#ffe36c"/>
  <rect x="176" y="172" width="12" height="12" fill="#ffe36c"/>
  <rect x="152" y="172" width="12" height="12" fill="#ffe36c"/>
  <rect x="164" y="184" width="12" height="12" fill="#ffe36c"/>
  <rect x="356" y="124" width="10" height="10" fill="#ffe36c"/>
  <rect x="366" y="134" width="10" height="10" fill="#ffe36c"/>
  <rect x="346" y="134" width="10" height="10" fill="#ffe36c"/>
  <rect x="356" y="144" width="10" height="10" fill="#ffe36c"/>
</svg>
